<svg xmlns="http://www.w3.org/2000/svg" viewBox="0 0 780 500" width="40" height="26">
  <rect width="780" height="500" rx="40" fill="#1a1f71"/>
  <path d="M293.2 348.7l33.4-195.7h53.4l-33.4 195.7zM530.9 157.1c-10.5-4-27.1-8.3-47.7-8.3-52.6 0-89.7 26.5-89.9 64.5-.3 28.1 26.4 43.7 46.6 53.1 20.7 9.6 27.7 15.7 27.6 24.3-.1 13.1-16.5 19.1-31.8 19.1-21.3 0-32.6-3-50.1-10.2l-6.9-3.1-7.5 43.8c12.4 5.4 35.4 10.1 59.3 10.4 56 0 92.3-26.2 92.7-66.8.2-22.3-14-39.2-44.8-53.2-18.6-9.1-30.1-15.1-30-24.3 0-8.1 9.7-16.8 30.6-16.8 17.4-.3 30.1 3.5 39.9 7.5l4.8 2.3 7.2-42.3" fill="#fff"/>
  <path d="M621.5 153h-41.2c-12.8 0-22.3 3.5-27.9 16.2l-79.2 179.5h56s9.2-24.1 11.2-29.4c6.1 0 60.5.1 68.3.1 1.6 6.9 6.5 29.3 6.5 29.3h49.5l-43.2-195.7zm-65.8 126.2c4.4-11.3 21.3-54.7 21.3-54.7-.3.5 4.4-11.3 7.1-18.7l3.6 16.9s10.2 46.8 12.4 56.5h-44.4z" fill="#fff"/>
  <path d="M247.1 153l-52.1 133.4-5.6-27c-9.7-31.2-39.9-65.1-73.7-82l47.7 171.1h56.4l83.9-195.5h-56.6" fill="#fff"/>
  <path d="M146.9 153H60.9l-.7 3.5c66.9 16.2 111.2 55.3 129.6 102.3l-18.7-90c-3.2-12.3-12.5-15.4-24.2-15.8" fill="#f7b600"/>
</svg>
